<svg xmlns="http://www.w3.org/2000/svg" version="1.1" viewBox="-5.0 -10.0 110.0 135.0">
 <path d="m43.125 79.098c-0.10156-0.97266 0.054688-1.9492 0.37109-2.875 0.6875-2.0117 2.1445-3.7969 3.3281-4.7812l-33.398-41.371c-0.050781 0-0.10547-0.003906-0.15625-0.007812-0.054687-0.003906 0.039063-0.13281-0.039062-0.070312-1.4062 1.1641-2.3242 2.8672-2.6641 4.6758-0.33984 1.7969-0.11328 3.6953 0.75781 5.2734l31.805 39.148zm-9.3086-48.43 16.43-7.7812c0.17578-0.082031 0.38281-0.027344 0.49609 0.12109l4.6211 5.7227c0.14062 0.17578 0.11328 0.42969-0.0625 0.57031-0.023437 0.019531-0.054687 0.035157-0.082031 0.050781l-16.43 7.7812c-0.17578 0.082032-0.38281 0.027344-0.49609-0.12109l-4.6211-5.7227c-0.14062-0.17578-0.11328-0.42969 0.0625-0.57031 0.023437-0.019531 0.054687-0.035156 0.082031-0.050781zm18.695-19.383 37.051 39.754 0.019531 0.027344-42.07 19.941-33.484-41.484 38.484-18.242zm4.2695 64.555 30.953-14.711c-0.003906-0.72656 0.03125-1.4688 0.10547-2.2266l-31.836 15.203c0.32422 0.49609 0.57812 1.082 0.77734 1.7344zm-0.64062 0.71484c0.20703 0.82812 0.33594 1.7656 0.41406 2.7578 0 0.027344 0 0.054688 0.007812 0.082031 0.12109 1.5898 0.11719 3.3164 0.11719 4.9766 0 0.70703 0 1.3984 0.007812 2.0625l-2.8164-2.9844c-0.03125-0.035157-0.066406-0.066407-0.10938-0.089844-0.19531-0.10938-0.44141-0.035156-0.55078 0.16016l-2.8594 5.1992-0.003906-0.097656c-0.046875-1.8359-0.10156-3.9336-0.24219-5.8516 0.003906-0.039062 0-0.082031-0.007813-0.125-0.17188-2.2422-0.47266-4.2227-1.0352-5.2305l6.2031-2.9648c0.37891 0.53906 0.65234 1.2227 0.85938 2.0117 0.003906 0.027343 0.011719 0.058593 0.023438 0.085937zm31.613-14.535-30.766 14.621c0.14453 0.64453 0.24609 1.3398 0.32031 2.0664l30.648-14.598c-0.10547-0.67969-0.17188-1.3789-0.20703-2.0938zm-40.148 9.8438 41.898-19.859c-0.32812 0.86719-0.60547 1.7188-0.83984 2.5547l-39.465 18.84c-0.20312 0.097656-0.28906 0.33984-0.19141 0.54297 0.097657 0.20312 0.33984 0.28906 0.54297 0.19141l38.848-18.547c-0.1875 0.78516-0.33203 1.5586-0.44141 2.3125l-0.007812 0.050781-39.684 18.949c-0.20312 0.097656-0.28906 0.33984-0.19141 0.54297 0.023437 0.050782 0.058593 0.09375 0.097656 0.12891 0.60156 0.58984 0.91797 2.543 1.1016 4.8867-0.99609 0.3125-1.918 0.33594-2.7109 0.089844-0.85156-0.26562-1.5625-0.85547-2.0625-1.7383-0.78516-1.3906-0.72266-2.9141-0.23828-4.3242 0.6875-2.0195 2.2148-3.7891 3.3438-4.625z" fill-rule="evenodd"/>
<text x="0.0" y="117.5" font-size="5.0" font-weight="bold" font-family="Arbeit Regular, Helvetica, Arial-Unicode, Arial, Sans-serif" fill="#000000">Created by Ar2ar</text><text x="0.0" y="122.5" font-size="5.0" font-weight="bold" font-family="Arbeit Regular, Helvetica, Arial-Unicode, Arial, Sans-serif" fill="#000000">from Noun Project</text></svg>